<?xml version="1.0" encoding="UTF-8" standalone="no"?>
<!-- Created with Inkscape (http://www.inkscape.org/) -->

<svg
   version="1.1"
   id="svg1"
   width="579.80078"
   height="457.98047"
   viewBox="0 0 579.80078 457.98047"
   xml:space="preserve"
   sodipodi:docname="LyricsSync.svg"
   inkscape:version="1.4 (86a8ad7, 2024-10-11)"
   xmlns:inkscape="http://www.inkscape.org/namespaces/inkscape"
   xmlns:sodipodi="http://sodipodi.sourceforge.net/DTD/sodipodi-0.dtd"
   xmlns="http://www.w3.org/2000/svg"
   xmlns:svg="http://www.w3.org/2000/svg"><sodipodi:namedview
     id="namedview1"
     pagecolor="#ffffff"
     bordercolor="#000000"
     borderopacity="0.25"
     inkscape:showpageshadow="2"
     inkscape:pageopacity="0.0"
     inkscape:pagecheckerboard="0"
     inkscape:deskcolor="#d1d1d1"
     inkscape:zoom="0.469366"
     inkscape:cx="-95.874008"
     inkscape:cy="51.132804"
     inkscape:window-width="1440"
     inkscape:window-height="830"
     inkscape:window-x="-6"
     inkscape:window-y="-6"
     inkscape:window-maximized="1"
     inkscape:current-layer="g1" /><defs
     id="defs1" /><g
     id="g2"><g
       id="g1"
       transform="translate(-400,-233.90039)"><g
         id="LyricsSync"><path
           id="text7"
           style="font-style:normal;font-variant:normal;font-weight:bold;font-stretch:normal;font-size:240px;font-family:'Elice DigitalCoding OTF';-inkscape-font-specification:'Elice DigitalCoding OTF, Bold';font-variant-ligatures:normal;font-variant-caps:normal;font-variant-numeric:normal;font-variant-east-asian:normal;text-align:start;writing-mode:lr-tb;direction:ltr;text-anchor:start;fill:#c64418;fill-opacity:1;stroke-width:2.97827;stroke-linecap:round;stroke-linejoin:round"
           d="m 447.11914,437.30078 c -31.44,0 -51.35938,20.39867 -51.35938,50.63867 0,24.72 12.96031,42.00071 40.32031,54.72071 21.36,9.84 32.88086,22.08023 32.88086,36.24023 0,13.68 -8.40179,21.83984 -21.84179,21.83984 -13.92,0 -22.5593,-9.11953 -23.2793,-23.51953 H 390 c 1.92,32.64 22.56062,52.79883 56.64062,52.79883 34.08,0 55.19922,-21.12047 55.19922,-54.48047 0,-25.44 -13.1993,-43.43937 -41.2793,-57.35937 -23.28,-11.52 -32.64062,-20.40016 -32.64062,-32.16016 0,-12 7.2007,-19.67969 18.7207,-19.67969 10.08,0 17.51844,7.19969 20.39844,19.67969 h 31.68164 c -2.16,-30.96 -21.12156,-48.71875 -51.60156,-48.71875 z M 793.08007,503 C 763.42679,503 747,520.28049 747,550.78711 v 32 c 0,29.65329 16.85364,47.14648 46.93359,47.14648 27.51995,0 43.52034,-15.14808 45.01367,-40.74804 H 810.7871 c -0.21333,9.17332 -7.25415,14.93359 -17.49414,14.93359 -11.73331,0 -18.56054,-7.46583 -18.56054,-21.11914 v -32.42773 c 0,-15.14665 5.97416,-21.97266 17.49414,-21.97266 9.59998,0 16.2137,5.7609 17.70703,15.57422 H 837.8789 C 836.38557,517.93387 820.3867,503 793.08007,503 Z m -92.82617,3.69922 c -12.58665,0 -21.76149,4.48116 -27.52148,14.50781 V 508.19336 H 645 v 121.8125 h 27.73242 v -74.45313 c 0,-15.5733 7.25452,-23.67968 19.20117,-23.67968 11.09331,0 16.42578,7.46745 16.42578,24.10742 v 74.02539 h 28.16016 v -76.37305 c 0,-29.86662 -13.22567,-46.93359 -36.26563,-46.93359 z M 505,509 l 48.7207,120.96094 -22.56055,61.91992 h 30.48047 L 633.88085,509 h -33.60156 l -24.71875,70.56055 -6.48047,18.95898 -5.04101,-18.95898 L 538.5996,509 Z"
           transform="translate(20.000005)" /><path
           id="text1"
           style="font-style:normal;font-variant:normal;font-weight:bold;font-stretch:normal;font-size:226.667px;font-family:'Elice DigitalCoding OTF';-inkscape-font-specification:'Elice DigitalCoding OTF, Bold';font-variant-ligatures:normal;font-variant-caps:normal;font-variant-numeric:normal;font-variant-east-asian:normal;text-align:start;writing-mode:lr-tb;direction:ltr;text-anchor:start;fill:#f3ad28;fill-opacity:1;stroke-width:2.97827;stroke-linecap:round;stroke-linejoin:round"
           d="m 400,233.90039 v 140.30664 c 0,9.74668 0.67924,12.69301 5.89258,17.67969 l 10.20117,10.6543 c 6.12001,6.34667 8.38686,7.47851 16.54687,7.47851 h 66.86524 v -27.87891 h -55.75977 c -2.94667,0 -5.21236,-0.90757 -6.3457,-2.26757 l -4.30664,-4.98633 c -2.49334,-2.04 -2.49414,-2.26633 -2.49414,-4.98633 v -136 z m 337.59961,15.29883 v 29.20117 h 30 V 249.19922 Z M 843.19922,291 C 815.39922,291 800,307.20078 800,335.80078 v 30 c 0,27.8 15.8,44.19922 44,44.19922 25.8,0 40.79922,-14.19922 42.19922,-38.19922 h -26.39844 c -0.2,8.6 -6.80039,14 -16.40039,14 C 832.40039,385.80078 826,378.8 826,366 V 335.59961 C 826,321.39961 831.60039,315 842.40039,315 c 9,0 15.19961,5.39961 16.59961,14.59961 h 26.19922 c -1.4,-24.6 -16.4,-38.59961 -42,-38.59961 z m 91.60156,0 c -25.2,0 -40.20117,13.2 -40.20117,34 0,17.2 10.40039,27.20039 32.40039,33.40039 19.6,5.2 26.40039,11 26.40039,17 0,6.2 -6.8,11 -16,11 -10.4,0 -17.60117,-5.00039 -18.20117,-13.40039 H 891 c 0.6,23.2 17.20039,37 46.40039,37 25.6,0 42.40039,-14.2 42.40039,-35 0,-16.8 -10.00156,-28.20078 -33.60156,-34.80078 -19.4,-5.6 -25.79883,-10.19844 -25.79883,-15.39844 0,-7.2 5,-10.60156 13,-10.60156 8.8,0 14.99922,4.40078 16.19922,12.80078 h 27.59961 c -1.4,-22.8 -16.79844,-36 -42.39844,-36 z M 674,293.59961 c -11,0 -21.40039,4.8 -27.40039,14 V 295.80078 H 620 V 410 h 26.59961 v -62.59961 c 0,-18.2 8,-29.40039 21,-29.40039 8.4,0 12.60078,4 14.80078,10 h 26.40039 C 706.00078,308.4 694.2,293.59961 674,293.59961 Z M 490,295.5 536.01367,409.74023 514.70703,468.2207 h 28.78711 L 611.7207,295.5 h -31.73437 l -23.34571,66.64062 -6.12109,17.90626 -4.75976,-17.90626 L 521.73242,295.5 Z m 223.19922,1.30078 v 24 h 28.40039 v 65.59961 H 710 V 410 h 82.80078 V 386.40039 H 768 v -81 c 0,-6 -2.80078,-8.59961 -7.80078,-8.59961 z" /></g></g></g></svg>
