<?xml version="1.0" encoding="UTF-8" standalone="no"?>
<!-- Created with Inkscape (http://www.inkscape.org/) -->

<svg
   version="1.1"
   id="svg1"
   width="1040"
   height="250"
   viewBox="0 0 1040 250"
   xml:space="preserve"
   sodipodi:docname="LyricsSyncM.svg"
   inkscape:version="1.4 (86a8ad7, 2024-10-11)"
   xmlns:inkscape="http://www.inkscape.org/namespaces/inkscape"
   xmlns:sodipodi="http://sodipodi.sourceforge.net/DTD/sodipodi-0.dtd"
   xmlns="http://www.w3.org/2000/svg"
   xmlns:svg="http://www.w3.org/2000/svg"><sodipodi:namedview
     id="namedview1"
     pagecolor="#ffffff"
     bordercolor="#000000"
     borderopacity="0.25"
     inkscape:showpageshadow="2"
     inkscape:pageopacity="0.0"
     inkscape:pagecheckerboard="0"
     inkscape:deskcolor="#d1d1d1"
     inkscape:zoom="0.469366"
     inkscape:cx="710.53293"
     inkscape:cy="51.132805"
     inkscape:window-width="1440"
     inkscape:window-height="830"
     inkscape:window-x="-6"
     inkscape:window-y="-6"
     inkscape:window-maximized="1"
     inkscape:current-layer="LyricsSync" /><defs
     id="defs1" /><g
     id="g2"><g
       id="g1"
       transform="translate(-400,-233.90039)"><g
         id="LyricsSync"><path
           id="text7"
           style="font-style:normal;font-variant:normal;font-weight:bold;font-stretch:normal;font-size:240px;font-family:'Elice DigitalCoding OTF';-inkscape-font-specification:'Elice DigitalCoding OTF, Bold';font-variant-ligatures:normal;font-variant-caps:normal;font-variant-numeric:normal;font-variant-east-asian:normal;text-align:start;writing-mode:lr-tb;direction:ltr;text-anchor:start;fill:#c64418;fill-opacity:1;stroke-width:2.97827;stroke-linecap:round;stroke-linejoin:round"
           d="m 1036.92,233.90039 c -31.44,0 -51.35942,20.39867 -51.35942,50.63867 0,24.72 12.9603,42.00071 40.32032,54.72071 21.36,9.84 32.8809,22.08023 32.8809,36.24023 0,13.68 -8.4018,21.83984 -21.8418,21.83984 -13.92,0 -22.5593,-9.11953 -23.2793,-23.51953 h -33.83992 c 1.92,32.64 22.56062,52.79883 56.64062,52.79883 34.08,0 55.1993,-21.12047 55.1993,-54.48047 0,-25.44 -13.1993,-43.43937 -41.2793,-57.35937 -23.28,-11.52 -32.6407,-20.40016 -32.6407,-32.16016 0,-12 7.2007,-19.67969 18.7207,-19.67969 10.08,0 17.5185,7.19969 20.3985,19.67969 h 31.6816 c -2.16,-30.96 -21.1215,-48.71875 -51.6015,-48.71875 z m 345.9609,65.69922 c -29.6533,0 -46.0801,17.28049 -46.0801,47.78711 v 32 c 0,29.65329 16.8537,47.14648 46.9336,47.14648 27.52,0 43.5204,-15.14808 45.0137,-40.74804 h -28.1602 c -0.2133,9.17332 -7.2541,14.93359 -17.4941,14.93359 -11.7333,0 -18.5606,-7.46583 -18.5606,-21.11914 v -32.42773 c 0,-15.14665 5.9742,-21.97266 17.4942,-21.97266 9.6,0 16.2137,5.7609 17.707,15.57422 h 27.9453 c -1.4933,-26.23996 -17.4922,-41.17383 -44.7988,-41.17383 z m -92.8262,3.69922 c -12.5866,0 -21.7615,4.48116 -27.5215,14.50781 v -13.01367 h -27.7324 v 121.8125 h 27.7324 v -74.45313 c 0,-15.5733 7.2546,-23.67968 19.2012,-23.67968 11.0933,0 16.4258,7.46745 16.4258,24.10742 v 74.02539 h 28.1602 v -76.37305 c 0,-29.86662 -13.2257,-46.93359 -36.2657,-46.93359 z m -195.2539,2.30078 48.7207,120.96094 -22.5605,61.91992 h 30.4804 l 72.2403,-182.88086 h -33.6016 l -24.7187,70.56055 -6.4805,18.95898 -5.041,-18.95898 -25.4395,-70.56055 z" /><path
           id="text1"
           style="font-style:normal;font-variant:normal;font-weight:bold;font-stretch:normal;font-size:226.667px;font-family:'Elice DigitalCoding OTF';-inkscape-font-specification:'Elice DigitalCoding OTF, Bold';font-variant-ligatures:normal;font-variant-caps:normal;font-variant-numeric:normal;font-variant-east-asian:normal;text-align:start;writing-mode:lr-tb;direction:ltr;text-anchor:start;fill:#f3ad28;fill-opacity:1;stroke-width:2.97827;stroke-linecap:round;stroke-linejoin:round"
           d="m 400,233.90039 v 140.30664 c 0,9.74668 0.67924,12.69301 5.89258,17.67969 l 10.20117,10.6543 c 6.12001,6.34667 8.38686,7.47851 16.54687,7.47851 h 66.86524 v -27.87891 h -55.75977 c -2.94667,0 -5.21236,-0.90757 -6.3457,-2.26757 l -4.30664,-4.98633 c -2.49334,-2.04 -2.49414,-2.26633 -2.49414,-4.98633 v -136 z m 337.59961,15.29883 v 29.20117 h 30 V 249.19922 Z M 843.19922,291 C 815.39922,291 800,307.20078 800,335.80078 v 30 c 0,27.8 15.8,44.19922 44,44.19922 25.8,0 40.79922,-14.19922 42.19922,-38.19922 h -26.39844 c -0.2,8.6 -6.80039,14 -16.40039,14 C 832.40039,385.80078 826,378.8 826,366 V 335.59961 C 826,321.39961 831.60039,315 842.40039,315 c 9,0 15.19961,5.39961 16.59961,14.59961 h 26.19922 c -1.4,-24.6 -16.4,-38.59961 -42,-38.59961 z m 91.60156,0 c -25.2,0 -40.20117,13.2 -40.20117,34 0,17.2 10.40039,27.20039 32.40039,33.40039 19.6,5.2 26.40039,11 26.40039,17 0,6.2 -6.8,11 -16,11 -10.4,0 -17.60117,-5.00039 -18.20117,-13.40039 H 891 c 0.6,23.2 17.20039,37 46.40039,37 25.6,0 42.40039,-14.2 42.40039,-35 0,-16.8 -10.00156,-28.20078 -33.60156,-34.80078 -19.4,-5.6 -25.79883,-10.19844 -25.79883,-15.39844 0,-7.2 5,-10.60156 13,-10.60156 8.8,0 14.99922,4.40078 16.19922,12.80078 h 27.59961 c -1.4,-22.8 -16.79844,-36 -42.39844,-36 z M 674,293.59961 c -11,0 -21.40039,4.8 -27.40039,14 V 295.80078 H 620 V 410 h 26.59961 v -62.59961 c 0,-18.2 8,-29.40039 21,-29.40039 8.4,0 12.60078,4 14.80078,10 h 26.40039 C 706.00078,308.4 694.2,293.59961 674,293.59961 Z M 490,295.5 536.01367,409.74023 514.70703,468.2207 h 28.78711 L 611.7207,295.5 h -31.73437 l -23.34571,66.64062 -6.12109,17.90626 -4.75976,-17.90626 L 521.73242,295.5 Z m 223.19922,1.30078 v 24 h 28.40039 v 65.59961 H 710 V 410 h 82.80078 V 386.40039 H 768 v -81 c 0,-6 -2.80078,-8.59961 -7.80078,-8.59961 z" /></g></g></g></svg>
