<?xml version="1.0" encoding="UTF-8" standalone="no"?>
<!-- Created with Inkscape (http://www.inkscape.org/) -->

<svg
   version="1.1"
   id="svg1"
   width="1024"
   height="1024"
   viewBox="0 0 1024 1024"
   sodipodi:docname="original.svg"
   xml:space="preserve"
   inkscape:version="1.4 (86a8ad7, 2024-10-11)"
   inkscape:export-filename="result_finall.svg"
   inkscape:export-xdpi="96"
   inkscape:export-ydpi="96"
   xmlns:inkscape="http://www.inkscape.org/namespaces/inkscape"
   xmlns:sodipodi="http://sodipodi.sourceforge.net/DTD/sodipodi-0.dtd"
   xmlns="http://www.w3.org/2000/svg"
   xmlns:svg="http://www.w3.org/2000/svg"><defs
     id="defs1"><inkscape:path-effect
       effect="fillet_chamfer"
       id="path-effect17"
       is_visible="true"
       lpeversion="1"
       nodesatellites_param="F,0,0,1,0,0,0,1 @ F,0,0,1,0,0,0,1 @ F,0,0,1,0,0,0,1 @ F,0,0,1,0,0,0,1 @ F,0,0,1,0,0,0,1 @ F,0,0,1,0,0,0,1 @ F,0,0,1,0,0,0,1 @ F,0,0,1,0,0,0,1"
       radius="0"
       unit="px"
       method="auto"
       mode="F"
       chamfer_steps="1"
       flexible="false"
       use_knot_distance="true"
       apply_no_radius="true"
       apply_with_radius="true"
       only_selected="false"
       hide_knots="false" /><inkscape:path-effect
       effect="fillet_chamfer"
       id="path-effect12"
       is_visible="true"
       lpeversion="1"
       nodesatellites_param="F,0,0,1,0,0,0,1 @ F,0,0,1,0,0,0,1 @ F,0,0,1,0,0,0,1 @ F,0,0,1,0,0,0,1 @ F,0,0,1,0,0,0,1 @ F,0,0,1,0,0,0,1"
       radius="0"
       unit="px"
       method="auto"
       mode="F"
       chamfer_steps="1"
       flexible="false"
       use_knot_distance="true"
       apply_no_radius="true"
       apply_with_radius="true"
       only_selected="false"
       hide_knots="false" /><inkscape:path-effect
       effect="fillet_chamfer"
       id="path-effect17-9"
       is_visible="true"
       lpeversion="1"
       nodesatellites_param="F,0,0,1,0,0,0,1 @ F,0,0,1,0,0,0,1 @ F,0,0,1,0,0,0,1 @ F,0,0,1,0,0,0,1 @ F,0,0,1,0,0,0,1 @ F,0,0,1,0,0,0,1 @ F,0,0,1,0,0,0,1 @ F,0,0,1,0,0,0,1"
       radius="0"
       unit="px"
       method="auto"
       mode="F"
       chamfer_steps="1"
       flexible="false"
       use_knot_distance="true"
       apply_no_radius="true"
       apply_with_radius="true"
       only_selected="false"
       hide_knots="false" /></defs><sodipodi:namedview
     id="namedview1"
     pagecolor="#0f172a"
     bordercolor="#000000"
     borderopacity="0.25"
     inkscape:showpageshadow="2"
     inkscape:pageopacity="0.0"
     inkscape:pagecheckerboard="0"
     inkscape:deskcolor="#d1d1d1"
     showgrid="true"
     inkscape:zoom="0.20146329"
     inkscape:cx="248.18418"
     inkscape:cy="1106.9014"
     inkscape:window-width="1440"
     inkscape:window-height="830"
     inkscape:window-x="-6"
     inkscape:window-y="-6"
     inkscape:window-maximized="1"
     inkscape:current-layer="g19"
     showguides="true"
     inkscape:export-bgcolor="#00172cff" /><g
     inkscape:groupmode="layer"
     inkscape:label="Image"
     id="g1"><g
       id="g19"
       inkscape:label="LETTER"
       transform="translate(100)"><text
         xml:space="preserve"
         style="font-style:normal;font-variant:normal;font-weight:normal;font-stretch:normal;font-size:106.667px;font-family:'Elice DigitalCoding OTF';-inkscape-font-specification:'Elice DigitalCoding OTF, Normal';font-variant-ligatures:normal;font-variant-caps:normal;font-variant-numeric:normal;font-variant-east-asian:normal;text-align:start;letter-spacing:-5px;writing-mode:lr-tb;direction:ltr;text-anchor:start;fill:#38bdf8;fill-opacity:1;stroke-width:2.97827;stroke-linecap:round;stroke-linejoin:round"
         x="-14.053333"
         y="639.57361"
         id="text14"
         inkscape:label="WEIRD"><tspan
           sodipodi:role="line"
           id="tspan14"
           x="-14.053333"
           y="639.57361"
           style="font-style:normal;font-variant:normal;font-weight:normal;font-stretch:normal;font-size:106.667px;font-family:'Elice DigitalCoding OTF';-inkscape-font-specification:'Elice DigitalCoding OTF, Normal';font-variant-ligatures:normal;font-variant-caps:normal;font-variant-numeric:normal;font-variant-east-asian:normal;letter-spacing:-5px;fill:#38bdf8;fill-opacity:1">WEIRD</tspan></text><text
         xml:space="preserve"
         style="font-style:normal;font-variant:normal;font-weight:normal;font-stretch:normal;font-size:106.667px;font-family:'Elice DigitalCoding OTF';-inkscape-font-specification:'Elice DigitalCoding OTF, Normal';font-variant-ligatures:normal;font-variant-caps:normal;font-variant-numeric:normal;font-variant-east-asian:normal;text-align:start;letter-spacing:-5px;writing-mode:lr-tb;direction:ltr;text-anchor:start;fill:#38bdf8;fill-opacity:1;stroke-width:2.97827;stroke-linecap:round;stroke-linejoin:round"
         x="-15.866673"
         y="740.85358"
         id="text15"
         inkscape:label="TRANSLATION"><tspan
           sodipodi:role="line"
           id="tspan15"
           x="-15.866673"
           y="740.85358"
           style="font-style:normal;font-variant:normal;font-weight:normal;font-stretch:normal;font-size:106.667px;font-family:'Elice DigitalCoding OTF';-inkscape-font-specification:'Elice DigitalCoding OTF, Normal';font-variant-ligatures:normal;font-variant-caps:normal;font-variant-numeric:normal;font-variant-east-asian:normal;letter-spacing:-5px;fill:#38bdf8;fill-opacity:1">TRANSLATION</tspan></text><g
         id="g17"
         inkscape:label="LYRICS QUIZ"
         transform="translate(-9.2133465,35.853403)"><text
           xml:space="preserve"
           style="font-style:normal;font-variant:normal;font-weight:normal;font-stretch:normal;font-size:106.667px;font-family:'Elice DigitalCoding OTF';-inkscape-font-specification:'Elice DigitalCoding OTF, Normal';font-variant-ligatures:normal;font-variant-caps:normal;font-variant-numeric:normal;font-variant-east-asian:normal;text-align:start;letter-spacing:-5px;writing-mode:lr-tb;direction:ltr;text-anchor:start;fill:#38bdf8;fill-opacity:1;stroke-width:2.97827;stroke-linecap:round;stroke-linejoin:round"
           x="-6.6666875"
           y="805.00018"
           id="text16"
           inkscape:label="LYRICS"><tspan
             sodipodi:role="line"
             id="tspan16"
             x="-6.6666875"
             y="805.00018"
             style="font-style:normal;font-variant:normal;font-weight:normal;font-stretch:normal;font-size:106.667px;font-family:'Elice DigitalCoding OTF';-inkscape-font-specification:'Elice DigitalCoding OTF, Normal';font-variant-ligatures:normal;font-variant-caps:normal;font-variant-numeric:normal;font-variant-east-asian:normal;letter-spacing:-5px;fill:#38bdf8;fill-opacity:1">LYRICS</tspan></text><text
           xml:space="preserve"
           style="font-style:normal;font-variant:normal;font-weight:normal;font-stretch:normal;font-size:106.667px;font-family:'Elice DigitalCoding OTF';-inkscape-font-specification:'Elice DigitalCoding OTF, Normal';font-variant-ligatures:normal;font-variant-caps:normal;font-variant-numeric:normal;font-variant-east-asian:normal;text-align:start;letter-spacing:-5px;writing-mode:lr-tb;direction:ltr;text-anchor:start;fill:#38bdf8;fill-opacity:1;stroke-width:2.97827;stroke-linecap:round;stroke-linejoin:round"
           x="372.42664"
           y="805.00018"
           id="text17"
           inkscape:label="QUIZ"><tspan
             sodipodi:role="line"
             id="tspan17"
             x="372.42664"
             y="805.00018"
             style="font-style:normal;font-variant:normal;font-weight:normal;font-stretch:normal;font-size:106.667px;font-family:'Elice DigitalCoding OTF';-inkscape-font-specification:'Elice DigitalCoding OTF, Normal';font-variant-ligatures:normal;font-variant-caps:normal;font-variant-numeric:normal;font-variant-east-asian:normal;letter-spacing:-5px;fill:#38bdf8;fill-opacity:1">QUIZ</tspan></text></g></g><g
       id="LyricsSync"
       inkscape:label="LyricsSync"><path
         id="text7"
         style="font-style:normal;font-variant:normal;font-weight:bold;font-stretch:normal;font-size:240px;font-family:'Elice DigitalCoding OTF';-inkscape-font-specification:'Elice DigitalCoding OTF, Bold';font-variant-ligatures:normal;font-variant-caps:normal;font-variant-numeric:normal;font-variant-east-asian:normal;text-align:start;writing-mode:lr-tb;direction:ltr;text-anchor:start;fill:#c64418;fill-opacity:1;stroke-width:2.97827;stroke-linecap:round;stroke-linejoin:round"
         inkscape:label="Sync"
         d="M 447.11914 437.30078 C 415.67914 437.30078 395.75976 457.69945 395.75976 487.93945 C 395.75976 512.65945 408.72007 529.94016 436.08007 542.66016 C 457.44007 552.50016 468.96093 564.74039 468.96093 578.90039 C 468.96093 592.58039 460.55914 600.74023 447.11914 600.74023 C 433.19914 600.74023 424.55984 591.6207 423.83984 577.2207 L 390 577.2207 C 391.92 609.8607 412.56062 630.01953 446.64062 630.01953 C 480.72062 630.01953 501.83984 608.89906 501.83984 575.53906 C 501.83984 550.09906 488.64054 532.09969 460.56054 518.17969 C 437.28054 506.65969 427.91992 497.77953 427.91992 486.01953 C 427.91992 474.01953 435.12062 466.33984 446.64062 466.33984 C 456.72062 466.33984 464.15906 473.53953 467.03906 486.01953 L 498.7207 486.01953 C 496.5607 455.05953 477.59914 437.30078 447.11914 437.30078 z M 793.08007 503 C 763.42679 503 747 520.28049 747 550.78711 L 747 582.78711 C 747 612.4404 763.85364 629.93359 793.93359 629.93359 C 821.45354 629.93359 837.45393 614.78551 838.94726 589.18555 L 810.7871 589.18555 C 810.57377 598.35887 803.53295 604.11914 793.29296 604.11914 C 781.55965 604.11914 774.73242 596.65331 774.73242 583 L 774.73242 550.57227 C 774.73242 535.42562 780.70658 528.59961 792.22656 528.59961 C 801.82654 528.59961 808.44026 534.36051 809.93359 544.17383 L 837.8789 544.17383 C 836.38557 517.93387 820.3867 503 793.08007 503 z M 700.2539 506.69922 C 687.66725 506.69922 678.49241 511.18038 672.73242 521.20703 L 672.73242 508.19336 L 645 508.19336 L 645 630.00586 L 672.73242 630.00586 L 672.73242 555.55273 C 672.73242 539.97943 679.98694 531.87305 691.93359 531.87305 C 703.0269 531.87305 708.35937 539.3405 708.35937 555.98047 L 708.35937 630.00586 L 736.51953 630.00586 L 736.51953 553.63281 C 736.51953 523.76619 723.29386 506.69922 700.2539 506.69922 z M 505 509 L 553.7207 629.96094 L 531.16015 691.88086 L 561.64062 691.88086 L 633.88085 509 L 600.27929 509 L 575.56054 579.56055 L 569.08007 598.51953 L 564.03906 579.56055 L 538.5996 509 L 505 509 z "
         transform="translate(20.000005)" /><path
         id="text1"
         style="font-style:normal;font-variant:normal;font-weight:bold;font-stretch:normal;font-size:226.667px;font-family:'Elice DigitalCoding OTF';-inkscape-font-specification:'Elice DigitalCoding OTF, Bold';font-variant-ligatures:normal;font-variant-caps:normal;font-variant-numeric:normal;font-variant-east-asian:normal;text-align:start;writing-mode:lr-tb;direction:ltr;text-anchor:start;fill:#f3ad28;fill-opacity:1;stroke-width:2.97827;stroke-linecap:round;stroke-linejoin:round"
         inkscape:label="Lyrics"
         d="M 400 233.90039 L 400 374.20703 C 400 383.95371 400.67924 386.90004 405.89258 391.88672 L 416.09375 402.54102 C 422.21376 408.88769 424.48061 410.01953 432.64062 410.01953 L 499.50586 410.01953 L 499.50586 382.14062 L 443.74609 382.14062 C 440.79942 382.14062 438.53373 381.23305 437.40039 379.87305 L 433.09375 374.88672 C 430.60041 372.84672 430.59961 372.62039 430.59961 369.90039 L 430.59961 233.90039 L 400 233.90039 z M 737.59961 249.19922 L 737.59961 278.40039 L 767.59961 278.40039 L 767.59961 249.19922 L 737.59961 249.19922 z M 843.19922 291 C 815.39922 291 800 307.20078 800 335.80078 L 800 365.80078 C 800 393.60078 815.8 410 844 410 C 869.8 410 884.79922 395.80078 886.19922 371.80078 L 859.80078 371.80078 C 859.60078 380.40078 853.00039 385.80078 843.40039 385.80078 C 832.40039 385.80078 826 378.8 826 366 L 826 335.59961 C 826 321.39961 831.60039 315 842.40039 315 C 851.40039 315 857.6 320.39961 859 329.59961 L 885.19922 329.59961 C 883.79922 304.99961 868.79922 291 843.19922 291 z M 934.80078 291 C 909.60078 291 894.59961 304.2 894.59961 325 C 894.59961 342.2 905 352.20039 927 358.40039 C 946.6 363.60039 953.40039 369.40039 953.40039 375.40039 C 953.40039 381.60039 946.60039 386.40039 937.40039 386.40039 C 927.00039 386.40039 919.79922 381.4 919.19922 373 L 891 373 C 891.6 396.2 908.20039 410 937.40039 410 C 963.00039 410 979.80078 395.8 979.80078 375 C 979.80078 358.2 969.79922 346.79922 946.19922 340.19922 C 926.79922 334.59922 920.40039 330.00078 920.40039 324.80078 C 920.40039 317.60078 925.40039 314.19922 933.40039 314.19922 C 942.20039 314.19922 948.39961 318.6 949.59961 327 L 977.19922 327 C 975.79922 304.2 960.40078 291 934.80078 291 z M 674 293.59961 C 663 293.59961 652.59961 298.39961 646.59961 307.59961 L 646.59961 295.80078 L 620 295.80078 L 620 410 L 646.59961 410 L 646.59961 347.40039 C 646.59961 329.20039 654.59961 318 667.59961 318 C 675.99961 318 680.20039 322 682.40039 328 L 708.80078 328 C 706.00078 308.4 694.2 293.59961 674 293.59961 z M 490 295.5 L 536.01367 409.74023 L 514.70703 468.2207 L 543.49414 468.2207 L 611.7207 295.5 L 579.98633 295.5 L 556.64062 362.14062 L 550.51953 380.04688 L 545.75977 362.14062 L 521.73242 295.5 L 490 295.5 z M 713.19922 296.80078 L 713.19922 320.80078 L 741.59961 320.80078 L 741.59961 386.40039 L 710 386.40039 L 710 410 L 792.80078 410 L 792.80078 386.40039 L 768 386.40039 L 768 305.40039 C 768 299.40039 765.19922 296.80078 760.19922 296.80078 L 713.19922 296.80078 z " /></g><g
       id="g37"
       inkscape:label="robot"><path
         d="m 139.85742,263.07617 c -19.39,0 -35,15.61 -35,35 v 21.125 c 13.00253,1.02125 23.16992,11.62627 23.16992,24.66797 v 44.39453 c 0,13.04167 -10.16742,23.64669 -23.16992,24.66797 v 34.78711 c 0,19.39 15.61,35 35,35 h 175.70313 c 19.39,0 35,-15.61 35,-35 V 298.07617 c 0,-19.39 -15.61,-35 -35,-35 z"
         style="font-variation-settings:'wght' 500;display:inline;fill:#38bdf8;fill-opacity:1;stroke-width:3.00566;stroke-linecap:round;stroke-linejoin:round"
         id="path12"
         inkscape:label="face" /><g
         id="g36"
         inkscape:label="ears"><path
           id="rect12-1"
           style="font-variation-settings:'wght' 500;fill:#38bdf8;fill-opacity:1;stroke-width:3.03683;stroke-linecap:round;stroke-linejoin:round"
           d="m 358.47147,328.05356 v 76.5 c 9.92397,-1.76325 17.35389,-9.47805 17.35389,-18.78517 v -38.92968 c 0,-9.30711 -7.42992,-17.02191 -17.35389,-18.78515 z"
           inkscape:label="rightEar" /><path
           style="font-variation-settings:'wght' 500;display:inline;fill:#38bdf8;fill-opacity:1;stroke-width:2.97827;stroke-linecap:round;stroke-linejoin:round"
           id="rect12"
           width="39.485863"
           height="81.604111"
           x="377.30936"
           y="323.78409"
           sodipodi:type="rect"
           ry="20.243"
           transform="matrix(1,0,0,0.94677691,-298.74973,20.58753)"
           inkscape:label="leftEar"
           d="m 397.05229,323.78409 c 10.93758,0 19.74293,9.02838 19.74293,20.243 v 41.11811 c 0,11.21462 -8.80535,20.243 -19.74293,20.243 -10.93759,0 -19.74293,-9.02838 -19.74293,-20.243 v -41.11811 c 0,-11.21462 8.80534,-20.243 19.74293,-20.243 z"
           inkscape:path-effect="#path-effect12" /></g><g
         id="g35"
         inkscape:label="hair"><path
           style="font-variation-settings:'wght' 500;display:inline;fill:#c74418;fill-opacity:1;stroke-width:2.97827;stroke-linecap:round;stroke-linejoin:round"
           id="headLED"
           sodipodi:type="arc"
           sodipodi:cx="231.43175"
           sodipodi:cy="184.58698"
           sodipodi:rx="28.230951"
           sodipodi:ry="28.230951"
           sodipodi:start="0"
           sodipodi:end="6.280817"
           sodipodi:arc-type="arc"
           d="m 259.6627,184.58698 a 28.230951,28.230951 0 0 1 -28.21424,28.23094 28.230951,28.230951 0 0 1 -28.24764,-28.19752 28.230951,28.230951 0 0 1 28.18078,-28.26433 28.230951,28.230951 0 0 1 28.28102,28.16405"
           sodipodi:insensitive="true"
           sodipodi:open="true" /><rect
           style="font-variation-settings:'wght' 500;display:inline;fill:#38bdf8;fill-opacity:1;stroke-width:2.08011;stroke-linecap:round;stroke-linejoin:round"
           id="rect14"
           width="10.858058"
           height="29.782103"
           x="225.92517"
           y="220.49614" /></g><g
         id="g34"
         inkscape:label="chest"
         style="fill:#38bdf8;fill-opacity:1"><rect
           style="fill:#38bdf8;fill-opacity:1;font-variation-settings:'wght' 500;stroke-width:2.97827;stroke-linecap:round;stroke-linejoin:round"
           id="rect15"
           width="83.139671"
           height="12.503856"
           x="189.7515"
           y="497.74121" /><path
           id="rect16"
           style="fill:#38bdf8;fill-opacity:1;font-variation-settings:'wght' 500;stroke-width:2.97827;stroke-linecap:round;stroke-linejoin:round"
           d="M 130.30335 546.65926 C 117.25804 546.65926 106.72394 556.91596 106.22132 569.83379 C 107.82486 569.54423 109.48141 569.3862 111.1803 569.3862 L 350.49085 569.3862 C 349.92221 559.41208 343.36541 551.09268 334.32874 547.97698 C 330.14068 546.53299 322.80851 546.65926 318.35804 546.65926 L 130.30335 546.65926 z "
           transform="matrix(1,0,0,1.0909067,-0.21936589,-75.141364)" /></g><g
         id="leftEye"
         inkscape:label="leftEye"
         transform="translate(0,-0.86898804)"><rect
           style="font-variation-settings:'wght' 500;fill:#02182c;fill-opacity:1;stroke-width:3.11468;stroke-linecap:round;stroke-linejoin:round"
           id="rect17"
           width="85.003082"
           height="85.003082"
           x="154.80489"
           y="308.86899"
           ry="23.705151" /><path
           style="font-variation-settings:'wght' 500;fill:#f0ac23;fill-opacity:1;stroke-width:2.36443;stroke-linecap:round;stroke-linejoin:round"
           id="leftLED"
           width="64.527885"
           height="64.527885"
           x="165.25089"
           y="319.69974"
           sodipodi:type="rect"
           ry="14.580821"
           transform="translate(-0.20840073,-0.59315236)"
           d="m 179.83171,319.69974 h 35.36624 c 8.07777,0 14.58082,6.50304 14.58082,14.58082 v 35.36624 c 0,8.07778 -6.50305,14.58082 -14.58082,14.58082 h -35.36624 c -8.07778,0 -14.58082,-6.50304 -14.58082,-14.58082 v -35.36624 c 0,-8.07778 6.50304,-14.58082 14.58082,-14.58082 z"
           inkscape:path-effect="#path-effect17" /><rect
           style="font-variation-settings:'wght' 500;fill:#00172e;fill-opacity:1;stroke-width:3.91229;stroke-linecap:round;stroke-linejoin:round"
           id="rect18"
           width="21.405886"
           height="29.161642"
           x="186.60349"
           y="336.7897"
           ry="9.1247711" /></g><g
         id="rightEye"
         inkscape:label="rightEye"
         transform="translate(106.19511,-0.86899)"><rect
           style="font-variation-settings:'wght' 500;fill:#02182c;fill-opacity:1;stroke-width:3.11468;stroke-linecap:round;stroke-linejoin:round"
           id="rect17-1"
           width="85.003082"
           height="85.003082"
           x="154.80489"
           y="308.86899"
           ry="23.705151" /><path
           style="font-variation-settings:'wght' 500;fill:#f0ac23;fill-opacity:1;stroke-width:2.36443;stroke-linecap:round;stroke-linejoin:round"
           id="rightLED"
           width="64.527885"
           height="64.527885"
           x="165.25089"
           y="319.69974"
           sodipodi:type="rect"
           ry="14.580821"
           transform="translate(-0.2084,-0.5931523)"
           d="m 179.83171,319.69974 h 35.36624 c 8.07777,0 14.58082,6.50304 14.58082,14.58082 v 35.36624 c 0,8.07778 -6.50305,14.58082 -14.58082,14.58082 h -35.36624 c -8.07778,0 -14.58082,-6.50304 -14.58082,-14.58082 v -35.36624 c 0,-8.07778 6.50304,-14.58082 14.58082,-14.58082 z"
           inkscape:path-effect="#path-effect17-9" /><rect
           style="font-variation-settings:'wght' 500;fill:#00172e;fill-opacity:1;stroke-width:3.91229;stroke-linecap:round;stroke-linejoin:round"
           id="rect18-3"
           width="21.405886"
           height="29.161642"
           x="186.60349"
           y="336.7897"
           ry="9.1247711" /></g><g
         id="mouse"
         inkscape:label="mouse"><rect
           style="font-variation-settings:'wght' 500;display:inline;fill:#00182b;fill-opacity:1;stroke-width:3.02112;stroke-linecap:round;stroke-linejoin:round"
           id="rect19"
           width="141.15475"
           height="43.742462"
           x="178.38239"
           y="412.91641"
           ry="16.554197" /><path
           d="m 214.99023,447.66406 v -25.75 h -18.13867 c -4.86083,0 -8.77344,3.91261 -8.77344,8.77344 v 8.20117 c 0,4.86083 3.91261,8.77539 8.77344,8.77539 z"
           style="font-variation-settings:'wght' 500;display:inline;fill:#c64217;fill-opacity:1;stroke-width:2.15389;stroke-linecap:round;stroke-linejoin:round"
           id="mouse1" /><path
           d="m 248.01953,447.66406 v -25.75 h -23.25781 v 25.75 z"
           style="font-variation-settings:'wght' 500;display:inline;fill:#f4ac24;fill-opacity:1;stroke-width:2.15389;stroke-linecap:round;stroke-linejoin:round"
           id="mouse2" /><path
           d="m 280.58789,447.66406 v -25.75 h -22.79492 v 25.75 z"
           style="font-variation-settings:'wght' 500;display:inline;fill:#f4ac24;fill-opacity:1;stroke-width:2.15389;stroke-linecap:round;stroke-linejoin:round"
           id="mouse3"
           inkscape:label="mouse3" /><path
           d="m 290.35937,421.91406 v 25.75 h 10.82813 c 4.86083,0 8.77344,-3.91456 8.77344,-8.77539 v -8.20117 c 0,-4.86083 -3.91261,-8.77344 -8.77344,-8.77344 z"
           style="font-variation-settings:'wght' 500;display:inline;fill:#c64217;fill-opacity:1;stroke-width:2.15389;stroke-linecap:round;stroke-linejoin:round"
           id="mouse4"
           inkscape:label="mouse4" /></g></g></g></svg>
