<?xml version="1.0" encoding="UTF-8" standalone="no"?>
<!-- Created with Inkscape (http://www.inkscape.org/) -->

<svg
   version="1.1"
   id="svg1"
   width="297.26572"
   height="390.13812"
   viewBox="0 0 297.26572 390.13812"
   xml:space="preserve"
   xmlns="http://www.w3.org/2000/svg"
   xmlns:svg="http://www.w3.org/2000/svg"><defs
     id="defs1" /><g
     id="g1"
     transform="translate(-78.559623,-156.35602)"><g
       id="g37"><path
         d="m 139.85742,263.07617 c -19.39,0 -35,15.61 -35,35 v 21.125 c 13.00253,1.02125 23.16992,11.62627 23.16992,24.66797 v 44.39453 c 0,13.04167 -10.16742,23.64669 -23.16992,24.66797 v 34.78711 c 0,19.39 15.61,35 35,35 h 175.70313 c 19.39,0 35,-15.61 35,-35 V 298.07617 c 0,-19.39 -15.61,-35 -35,-35 z"
         style="font-variation-settings:'wght' 500;display:inline;fill:#38bdf8;fill-opacity:1;stroke-width:3.00566;stroke-linecap:round;stroke-linejoin:round"
         id="path12" /><g
         id="g36"><path
           id="rect12-1"
           style="font-variation-settings:'wght' 500;fill:#38bdf8;fill-opacity:1;stroke-width:3.03683;stroke-linecap:round;stroke-linejoin:round"
           d="m 358.47147,328.05356 v 76.5 c 9.92397,-1.76325 17.35389,-9.47805 17.35389,-18.78517 v -38.92968 c 0,-9.30711 -7.42992,-17.02191 -17.35389,-18.78515 z" /><path
           style="font-variation-settings:'wght' 500;display:inline;fill:#38bdf8;fill-opacity:1;stroke-width:2.97827;stroke-linecap:round;stroke-linejoin:round"
           id="rect12"
           width="39.485863"
           height="81.604111"
           x="377.30936"
           y="323.78409"
           ry="20.243"
           transform="matrix(1,0,0,0.94677691,-298.74973,20.58753)"
           d="m 397.05229,323.78409 c 10.93758,0 19.74293,9.02838 19.74293,20.243 v 41.11811 c 0,11.21462 -8.80535,20.243 -19.74293,20.243 -10.93759,0 -19.74293,-9.02838 -19.74293,-20.243 v -41.11811 c 0,-11.21462 8.80534,-20.243 19.74293,-20.243 z" /></g><g
         id="g35"><path
           style="font-variation-settings:'wght' 500;display:inline;fill:#c74418;fill-opacity:1;stroke-width:2.97827;stroke-linecap:round;stroke-linejoin:round"
           id="headLED"
           d="m 259.6627,184.58698 a 28.230951,28.230951 0 0 1 -28.21424,28.23094 28.230951,28.230951 0 0 1 -28.24764,-28.19752 28.230951,28.230951 0 0 1 28.18078,-28.26433 28.230951,28.230951 0 0 1 28.28102,28.16405" /><rect
           style="font-variation-settings:'wght' 500;display:inline;fill:#38bdf8;fill-opacity:1;stroke-width:2.08011;stroke-linecap:round;stroke-linejoin:round"
           id="rect14"
           width="10.858058"
           height="29.782103"
           x="225.92517"
           y="220.49614" /></g><g
         id="g34"
         style="fill:#38bdf8;fill-opacity:1"><rect
           style="font-variation-settings:'wght' 500;fill:#38bdf8;fill-opacity:1;stroke-width:2.97827;stroke-linecap:round;stroke-linejoin:round"
           id="rect15"
           width="83.139671"
           height="12.503856"
           x="189.7515"
           y="497.74121" /><path
           id="rect16"
           style="font-variation-settings:'wght' 500;fill:#38bdf8;fill-opacity:1;stroke-width:2.97827;stroke-linecap:round;stroke-linejoin:round"
           d="m 130.30335,546.65926 c -13.04531,0 -23.57941,10.2567 -24.08203,23.17453 1.60354,-0.28956 3.26009,-0.44759 4.95898,-0.44759 h 239.31055 c -0.56864,-9.97412 -7.12544,-18.29352 -16.16211,-21.40922 -4.18806,-1.44399 -11.52023,-1.31772 -15.9707,-1.31772 z"
           transform="matrix(1,0,0,1.0909067,-0.21936589,-75.141364)" /></g><g
         id="leftEye"
         transform="translate(0,-0.86898804)"><rect
           style="font-variation-settings:'wght' 500;fill:#02182c;fill-opacity:1;stroke-width:3.11468;stroke-linecap:round;stroke-linejoin:round"
           id="rect17"
           width="85.003082"
           height="85.003082"
           x="154.80489"
           y="308.86899"
           ry="23.705151" /><path
           style="font-variation-settings:'wght' 500;fill:#f0ac23;fill-opacity:1;stroke-width:2.36443;stroke-linecap:round;stroke-linejoin:round"
           id="leftLED"
           width="64.527885"
           height="64.527885"
           x="165.25089"
           y="319.69974"
           ry="14.580821"
           transform="translate(-0.20840073,-0.59315236)"
           d="m 179.83171,319.69974 h 35.36624 c 8.07777,0 14.58082,6.50304 14.58082,14.58082 v 35.36624 c 0,8.07778 -6.50305,14.58082 -14.58082,14.58082 h -35.36624 c -8.07778,0 -14.58082,-6.50304 -14.58082,-14.58082 v -35.36624 c 0,-8.07778 6.50304,-14.58082 14.58082,-14.58082 z" /><rect
           style="font-variation-settings:'wght' 500;fill:#00172e;fill-opacity:1;stroke-width:3.91229;stroke-linecap:round;stroke-linejoin:round"
           id="rect18"
           width="21.405886"
           height="29.161642"
           x="186.60349"
           y="336.7897"
           ry="9.1247711" /></g><g
         id="rightEye"
         transform="translate(106.19511,-0.86899)"><rect
           style="font-variation-settings:'wght' 500;fill:#02182c;fill-opacity:1;stroke-width:3.11468;stroke-linecap:round;stroke-linejoin:round"
           id="rect17-1"
           width="85.003082"
           height="85.003082"
           x="154.80489"
           y="308.86899"
           ry="23.705151" /><path
           style="font-variation-settings:'wght' 500;fill:#f0ac23;fill-opacity:1;stroke-width:2.36443;stroke-linecap:round;stroke-linejoin:round"
           id="rightLED"
           width="64.527885"
           height="64.527885"
           x="165.25089"
           y="319.69974"
           ry="14.580821"
           transform="translate(-0.2084,-0.5931523)"
           d="m 179.83171,319.69974 h 35.36624 c 8.07777,0 14.58082,6.50304 14.58082,14.58082 v 35.36624 c 0,8.07778 -6.50305,14.58082 -14.58082,14.58082 h -35.36624 c -8.07778,0 -14.58082,-6.50304 -14.58082,-14.58082 v -35.36624 c 0,-8.07778 6.50304,-14.58082 14.58082,-14.58082 z" /><rect
           style="font-variation-settings:'wght' 500;fill:#00172e;fill-opacity:1;stroke-width:3.91229;stroke-linecap:round;stroke-linejoin:round"
           id="rect18-3"
           width="21.405886"
           height="29.161642"
           x="186.60349"
           y="336.7897"
           ry="9.1247711" /></g><g
         id="mouse"><rect
           style="font-variation-settings:'wght' 500;display:inline;fill:#00182b;fill-opacity:1;stroke-width:3.02112;stroke-linecap:round;stroke-linejoin:round"
           id="rect19"
           width="141.15475"
           height="43.742462"
           x="178.38239"
           y="412.91641"
           ry="16.554197" /><path
           d="m 214.99023,447.66406 v -25.75 h -18.13867 c -4.86083,0 -8.77344,3.91261 -8.77344,8.77344 v 8.20117 c 0,4.86083 3.91261,8.77539 8.77344,8.77539 z"
           style="font-variation-settings:'wght' 500;display:inline;fill:#c64217;fill-opacity:1;stroke-width:2.15389;stroke-linecap:round;stroke-linejoin:round"
           id="mouse1" /><path
           d="m 248.01953,447.66406 v -25.75 h -23.25781 v 25.75 z"
           style="font-variation-settings:'wght' 500;display:inline;fill:#f4ac24;fill-opacity:1;stroke-width:2.15389;stroke-linecap:round;stroke-linejoin:round"
           id="mouse2" /><path
           d="m 280.58789,447.66406 v -25.75 h -22.79492 v 25.75 z"
           style="font-variation-settings:'wght' 500;display:inline;fill:#f4ac24;fill-opacity:1;stroke-width:2.15389;stroke-linecap:round;stroke-linejoin:round"
           id="mouse3" /><path
           d="m 290.35937,421.91406 v 25.75 h 10.82813 c 4.86083,0 8.77344,-3.91456 8.77344,-8.77539 v -8.20117 c 0,-4.86083 -3.91261,-8.77344 -8.77344,-8.77344 z"
           style="font-variation-settings:'wght' 500;display:inline;fill:#c64217;fill-opacity:1;stroke-width:2.15389;stroke-linecap:round;stroke-linejoin:round"
           id="mouse4" /></g></g></g></svg>
